<?xml version="1.0" encoding="utf-8"?>
<!-- Generator: Adobe Illustrator 19.1.0, SVG Export Plug-In . SVG Version: 6.00 Build 0)  -->
<svg version="1.1" id="Layer_1" xmlns="http://www.w3.org/2000/svg" xmlns:xlink="http://www.w3.org/1999/xlink" x="0px" y="0px"
	 viewBox="-105 177.2 71.1 71" style="enable-background:new -105 177.2 71.1 71;" xml:space="preserve">
<style type="text/css">
	.st0{fill:#FFFFFF;}
	.st1{display:none;}
</style>
<g id="base">
	
		<g id="SvgjsG1011_2_" transform="translate(137.10086198313525,-193.30061609141129) scale(0.5526032189049289)" xmlns:name="symbol_mainfill">
		<path class="st0" d="M-378.9,752.6c0.8,0.2,1.6,0.1,2.3-0.4c0.7-0.4,1.2-1,1.5-1.8l7.9-29.9c0.4-1.7-0.5-3.3-2.1-3.7
			c-1.7-0.4-3.3,0.5-3.7,2.1l-7.9,29.9C-381.4,750.6-380.4,752.3-378.9,752.6z M-367.6,739.5c-1.6,0.5-2.5,2.3-2,3.8
			c0.4,1.2,0.4,2.1,0.2,3.2l-3.4,13c-0.9,3.5-5,5.4-9.1,4.3c-4.1-1.1-6.7-4.8-5.8-8.2l3.4-13c0.3-1,0.9-1.9,1.8-2.7
			c1.3-1.2,1.3-3,0.2-4.3c-1.2-1.3-3-1.3-4.3-0.2c-1.7,1.6-3,3.5-3.5,5.7l-3.4,13c-1.7,6.6,2.8,13.6,10.1,15.6c4,1,7.8,0.4,10.8-1.4
			c2.7-1.6,4.8-4,5.6-7.2l3.4-13c0.6-2.1,0.5-4.5-0.3-6.7C-364.2,739.8-366,738.9-367.6,739.5z M-381.4,708.4l-3.4,13
			c-0.6,2.1-0.5,4.5,0.3,6.7c0.5,1.6,2.3,2.5,3.8,2c1.6-0.5,2.5-2.3,2-3.8c-0.4-1.2-0.4-2.1-0.2-3.2l3.4-13c0.9-3.5,5-5.4,9.1-4.3
			s6.7,4.8,5.8,8.2l-3.4,13c-0.3,1-0.9,1.9-1.8,2.7c-1.3,1.2-1.3,3-0.2,4.3c0.9,1.1,2.6,1.3,3.7,0.6c0.2-0.1,0.3-0.2,0.5-0.4
			c1.7-1.6,3-3.5,3.5-5.7l3.4-13c1.7-6.6-2.8-13.6-10.1-15.6C-372.2,697.8-379.6,701.6-381.4,708.4z M-341.7,688.6
			c-4.6-4.1-9.6-6.2-15-6.1c-5.9-0.1-11.7,0-17.6,0c-5.8,0-11.7,0.1-17.6,0c-3.7,0.1-7,0.9-10.2,2.6c-3.8,2.1-6.6,4.7-8.5,8
			c-1.7,2.9-3.4,5.7-4.9,8.6c-4.2,7.2-8.5,14.7-12.7,22.2c-3.9,7.2-3.9,14.7,0.1,21.6c3.8,6.8,8,13.7,11.9,20.3
			c1.9,3.3,4,6.8,5.9,10.1c1.2,2,2.6,3.7,4,4.9c4.5,3.8,9.4,5.8,14.7,5.8c5.7,0,11.6,0,17.4-0.1c5.8,0,11.7-0.1,17.4-0.1
			c3.5,0,6.7-0.7,10-2.3c0.5-0.3,1-0.6,1.5-0.9c3.3-1.9,5.9-4.5,7.7-7.7c5.6-10,11.5-20.4,17.3-30.5c1.9-3.2,2.9-6.7,2.9-10.6
			c0-4.3-0.8-7.5-2.5-10.4l-18.2-31.2C-338.9,691.6-340.2,689.9-341.7,688.6z M-325,727.5c1.1,1.9,1.6,4.2,1.6,7.5
			c0.1,2.8-0.6,5.2-2,7.6c-6,10.2-11.8,20.6-17.4,30.6c-1.5,2.5-3.6,4.4-6.5,6c-2.4,1.1-4.8,1.7-7.3,1.6c-5.8,0-11.6,0-17.4,0.1
			c-5.8,0-11.6,0-17.4,0.1c-3.9,0-7.3-1.3-10.8-4.3c-1-0.8-2-1.9-2.8-3.4c-1.9-3.3-4-6.8-5.9-10.1c-3.9-6.7-7.9-13.6-11.9-20.3
			c-3-5.2-3-10.3-0.1-15.7c4.1-7.4,8.4-14.8,12.5-22.1c1.7-2.9,3.4-5.7,5-8.7c1.2-2.2,2.9-3.9,5.4-5.4c0.2-0.1,0.4-0.2,0.6-0.4
			c2.4-1.2,4.8-1.8,7.5-1.8c5.9,0.1,11.7,0,17.6,0c5.8,0,11.7-0.1,17.6,0c3.9,0,7.4,1.4,10.9,4.6c0.9,0.9,1.9,2,2.6,3.2l18.2,31.2
			V727.5z"/>
	</g>
</g>
<g id="text_source" class="st1">
</g>
<g id="text_flat">
</g>
</svg>
