<?xml version="1.0" encoding="utf-8"?>
<!-- Generator: Adobe Illustrator 19.1.0, SVG Export Plug-In . SVG Version: 6.00 Build 0)  -->
<svg version="1.1" id="Layer_1" xmlns="http://www.w3.org/2000/svg" xmlns:xlink="http://www.w3.org/1999/xlink" x="0px" y="0px"
	 viewBox="-121 192.2 40 41" style="enable-background:new -121 192.2 40 41;" xml:space="preserve">
<style type="text/css">
	.st0{fill:#FFFFFF;}
</style>
<title>Shape</title>
<desc>Created with Sketch.</desc>
<g id="Page-1">
	<g id="try-search-icon" transform="translate(0.000000, -37.000000)">
		<path id="Shape" class="st0" d="M-111.6,256.2c-4.8-4.9-4.8-12.9,0-17.8c4.8-4.9,12.5-4.9,17.3,0c4.8,4.9,4.8,12.8,0,17.8
			C-99,261.1-106.8,261.1-111.6,256.2 M-82.1,264.9l-6.9-7c5-7,4.4-16.9-1.7-23.2c-6.8-7-17.8-7-24.6,0c-6.8,7-6.8,18.2,0,25.2
			c6.2,6.3,15.8,6.9,22.6,1.8l6.9,7c1,1,2.7,1,3.7,0C-81,267.7-81,266-82.1,264.9"/>
	</g>
</g>
</svg>
